<?xml version="1.0" encoding="UTF-8" standalone="no"?>
<svg
   width="16"
   height="16"
   class="icon"
   viewBox="0 0 81.92 81.92"
   version="1.1"
   id="svg2"
   sodipodi:docname="capability_board.svg"
   inkscape:version="1.4 (86a8ad7, 2024-10-11)"
   xmlns:inkscape="http://www.inkscape.org/namespaces/inkscape"
   xmlns:sodipodi="http://sodipodi.sourceforge.net/DTD/sodipodi-0.dtd"
   xmlns="http://www.w3.org/2000/svg"
   xmlns:svg="http://www.w3.org/2000/svg">
  <defs
     id="defs2" />
  <sodipodi:namedview
     id="namedview2"
     pagecolor="#ffffff"
     bordercolor="#000000"
     borderopacity="0.25"
     inkscape:showpageshadow="2"
     inkscape:pageopacity="0.0"
     inkscape:pagecheckerboard="0"
     inkscape:deskcolor="#d1d1d1"
     inkscape:zoom="37.82"
     inkscape:cx="25.105764"
     inkscape:cy="11.277102"
     inkscape:window-width="3840"
     inkscape:window-height="2126"
     inkscape:window-x="-11"
     inkscape:window-y="-11"
     inkscape:window-maximized="1"
     inkscape:current-layer="svg2" />
  <path
     fill="#e0e0e0"
     d="m 42.24,3.29856 30.6944,17.72288 a 2.56,2.56 0 0 1 1.28,2.21696 v 35.4432 a 2.56,2.56 0 0 1 -1.28,2.21696 L 42.24,78.62144 a 2.56,2.56 0 0 1 -2.56,0 L 8.9856,60.89856 A 2.56,2.56 0 0 1 7.7056,58.6816 V 23.2384 a 2.56,2.56 0 0 1 1.28,-2.21696 L 39.68,3.29856 a 2.56,2.56 0 0 1 2.56,0 m -1.28,5.17248 -26.08128,15.05664 1.37216,0.79232 -1.92,3.32544 -1.50784,-0.8704 v 29.8368 l 0.512,0.88448 25.8496,14.92608 V 67.2 h 3.84 v 5.05216 l 24.7424,-14.2848 1.3248,-2.29504 V 27.65696 l -1.53088,0.88576 -1.92,-3.32544 2.15936,-1.248 L 43.02592,9.664 v 7.616 h -3.84 V 9.6 h 3.72736 L 40.96,8.46976 Z M 43.0272,55.68 v 7.68 h -3.84 v -7.68 z m -20.61696,-5.50272 1.92,3.32544 -6.65088,3.84 -1.92,-3.32544 z M 59.48288,49.28 l 6.65088,3.84 -1.92,3.32544 -6.65088,-3.84 z M 43.0272,32.64 v 7.13728 l 3.15392,1.82272 -1.92,3.32544 -1.2352,-0.71296 V 51.84 h -3.84 v -6.91584 l -1.55264,0.89856 -1.92,-3.32544 2.1696,-1.2544 -0.27264,-0.15744 1.57568,-2.7328 V 32.64 h 3.84 z m -10.63936,11.77728 1.92,3.32544 -6.65216,3.84 -1.92,-3.32544 z M 49.50656,43.52 l 6.65088,3.84 -1.92,3.32544 -6.65088,-3.84 z m -7.7824,-0.06016 -1.21216,0.69888 h 2.42176 l -1.21088,-0.69888 z m 10.61632,-10.56256 1.92,3.32544 -6.65088,3.84 -1.92,-3.32544 z M 29.55264,32 l 6.65216,3.84 -1.92,3.32544 -6.65216,-3.84 z m 32.76416,-4.86272 1.92,3.32544 -6.65088,3.84 -1.92,-3.32544 z M 19.5776,26.24 l 6.6496,3.84 -1.92,3.32544 -6.65088,-3.84 1.92,-3.32544 z m 23.4496,-5.12 v 7.68 h -3.84 v -7.68 z"
     id="path1"
     style="stroke-width:1" />
  <path
     fill="#e0e0e0"
     d="M 58.6496,32.672 40.34048,15.77984 26.65216,33.10848 22.26432,51.25888 41.06624,66.6624 55.22304,49.26464 58.65088,32.67072 Z M 40.93056,23.29088 53.0496,34.4704 50.46016,47.00544 40.33664,59.44704 27.99616,49.33504 31.36384,35.40224 Z"
     id="path2"
     style="stroke-width:1" />
</svg>
