<?xml version="1.0" encoding="UTF-8" standalone="no"?>
<svg
   width="16"
   height="16"
   class="icon"
   viewBox="0 0 81.92 81.92"
   version="1.1"
   id="svg2"
   sodipodi:docname="trigger.svg"
   inkscape:version="1.4 (86a8ad7, 2024-10-11)"
   xmlns:inkscape="http://www.inkscape.org/namespaces/inkscape"
   xmlns:sodipodi="http://sodipodi.sourceforge.net/DTD/sodipodi-0.dtd"
   xmlns="http://www.w3.org/2000/svg"
   xmlns:svg="http://www.w3.org/2000/svg">
  <defs
     id="defs2" />
  <sodipodi:namedview
     id="namedview2"
     pagecolor="#ffffff"
     bordercolor="#000000"
     borderopacity="0.25"
     inkscape:showpageshadow="2"
     inkscape:pageopacity="0.0"
     inkscape:pagecheckerboard="0"
     inkscape:deskcolor="#d1d1d1"
     inkscape:zoom="53.485557"
     inkscape:cx="18.070299"
     inkscape:cy="12.162162"
     inkscape:window-width="3840"
     inkscape:window-height="2126"
     inkscape:window-x="-11"
     inkscape:window-y="-11"
     inkscape:window-maximized="1"
     inkscape:current-layer="svg2" />
  <path
     fill="#e0e0e0"
     d="m 41.01384,47.78608 c 0.81232,0 1.5836,0.38912 2.1092,1.06152 l 24.64224,28.75832 c 0.56656,0.81232 0.64848,1.91128 0.21504,2.81232 a 2.6352,2.6352 0 0 1 -2.2936,1.4984 h -49.356 a 2.6352,2.6352 0 0 1 -2.32096,-1.51888 2.8808,2.8808 0 0 1 0,-2.79184 l 24.8948,-28.7584 a 2.6864,2.6864 0 0 1 2.10928,-1.06144 m 0.03408,6.8944 L 21.53552,76.524 H 60.49208 L 41.04456,54.68048 Z"
     id="path1"
     style="stroke-width:1" />
  <path
     fill="#e0e0e0"
     d="m 67.5536,56.9092 -0.2184,0.232 a 2.90448,2.90448 0 0 1 -4.97616,-1.77472 2.856,2.856 0 0 1 0.65184,-2.04784 l 0.69968,-0.82592 C 72.52304,40.46168 70.95648,23.5364 60.09272,13.41672 A 27.9288,27.9288 0 0 0 21.80176,13.45088 C 10.95856,23.5808 9.41584,40.50952 18.24536,52.53024 l 0.49152,0.68264 c 0.9488,1.2628 0.75088,3.06832 -0.44032,4.0888 l -0.02392,0.01704 A 2.66216,2.66216 0 0 1 14.4228,56.99792 C 3.15632,42.728 4.56592,21.95952 17.65152,9.42352 A 33.52296,33.52296 0 0 1 64.17136,9.34496 c 13.12656,12.48832 14.60096,33.25328 3.37888,47.5608 z M 55.58752,26.086 a 17.8264,17.8264 0 0 1 0.22872,17.33144 l -0.14336,0.28664 A 2.86,2.86 0 0 1 52.04136,45.1376 2.7408,2.7408 0 0 1 50.5396,41.62216 l 1.13656,-2.9796 c 1.57,-4.82608 -0.09216,-10.14016 -4.10928,-13.13 A 11.1536,11.1536 0 0 0 34.11264,25.5808 c -3.98984,3.02736 -5.6008,8.362 -3.98304,13.17096 l 1.06488,2.7816 c 0.2628,0.68264 0.24912,1.4472 -0.0376,2.11616 A 2.7304,2.7304 0 0 1 29.662,45.11712 L 29.62104,45.1376 A 2.8088,2.8088 0 0 1 26.0032,43.5232 17.8568,17.8568 0 0 1 26.16024,26.13376 c 3.06152,-5.35848 8.66568,-8.64528 14.72048,-8.64184 6.0376,0 11.6248,3.26624 14.69656,8.594 z"
     id="path2"
     style="stroke-width:1" />
</svg>
