<?xml version="1.0" standalone="no"?><!DOCTYPE svg PUBLIC "-//W3C//DTD SVG 1.1//EN" "http://www.w3.org/Graphics/SVG/1.1/DTD/svg11.dtd"><svg t="1760258148233" class="icon" viewBox="0 0 1024 1024" version="1.1" xmlns="http://www.w3.org/2000/svg" p-id="4782" width="16" height="16" xmlns:xlink="http://www.w3.org/1999/xlink"><path d="M511.003648 845.702144c-171.123712-0.216064-314.263552-130.008064-331.175936-300.292096-16.915456-170.284032 97.900544-325.700608 265.63584-359.568384 167.73632-33.871872 333.860864 64.816128 384.34816 228.31616 50.48832 163.504128-31.076352 338.670592-188.703744 405.271552a332.223488 332.223488 0 0 1-130.10432 26.272768z m0-629.148672c-140.695552 0.004096-261.79584 99.388416-289.24416 237.380608-27.447296 137.992192 46.404608 276.155392 176.388096 329.996288 129.988608 53.839872 279.904256 8.364032 358.068224-108.6208 78.163968-116.982784 62.808064-272.891904-36.675584-372.378624a293.011456 293.011456 0 0 0-208.536576-86.377472z m0 0" fill="#ffffff" p-id="4783"></path><path d="M327.499776 511.465472c0 101.344256 82.156544 183.5008 183.503872 183.5008 101.344256 0 183.5008-82.15552 183.5008-183.5008 0-101.343232-82.15552-183.499776-183.5008-183.499776-101.347328 0-183.503872 82.156544-183.503872 183.499776z m0 0" fill="#ffffff" p-id="4784"></path></svg>